<svg width="46" height="76" viewBox="0 0 46 76" fill="none" xmlns="http://www.w3.org/2000/svg">
<path d="M5.82393 2.46646C5.71162 2.3029 5.57845 2.15444 5.42787 2.02525C5.09821 1.76211 4.68875 1.61951 4.26695 1.62051C3.91252 1.61108 3.56182 1.69489 3.24994 1.86353C2.9773 2.01919 2.74344 2.23431 2.56593 2.49326C2.39184 2.76968 2.26696 3.07419 2.1969 3.39327C2.12541 3.73363 2.08923 4.08082 2.08891 4.42862C2.08883 4.75859 2.12504 5.08742 2.1969 5.40948C2.2644 5.72934 2.38946 6.03429 2.56593 6.30948C2.73481 6.57576 2.97069 6.79319 3.24994 6.93965C3.56394 7.10174 3.91368 7.182 4.26695 7.17344C4.50211 7.18637 4.73729 7.14993 4.95744 7.06621C5.17758 6.9825 5.37772 6.85333 5.54488 6.68741C5.87019 6.32616 6.06644 5.86744 6.10287 5.38267H7.81289C7.77716 5.86153 7.65837 6.33012 7.46188 6.76827C7.28079 7.15753 7.02732 7.50913 6.71492 7.80362C6.39947 8.09319 6.0291 8.31657 5.62584 8.4606C5.18517 8.60874 4.72282 8.68152 4.25794 8.67637C3.68722 8.6769 3.12172 8.567 2.59285 8.35249C2.12292 8.12873 1.70446 7.80988 1.3637 7.41646C1.02294 7.02303 0.767299 6.56351 0.612892 6.06646C0.246712 4.99282 0.246712 3.82794 0.612892 2.7543C0.786147 2.25882 1.05184 1.80072 1.39589 1.4043C1.73704 1.01483 2.16155 0.707215 2.63789 0.5043C3.1642 0.281278 3.73134 0.171034 4.30287 0.180423C4.73061 0.170614 5.15686 0.234514 5.56289 0.369388C5.94366 0.488536 6.30024 0.674306 6.61593 0.918265C6.93112 1.16645 7.19675 1.47177 7.39893 1.81826C7.59717 2.19969 7.72225 2.61514 7.76785 3.04258H6.01289C5.98531 2.84792 5.91793 2.66072 5.81492 2.49326" fill="white"/>
<path d="M10.3329 7.01046C10.5943 7.22172 10.9148 7.34677 11.2502 7.36773C11.5856 7.3887 11.9193 7.30487 12.2049 7.12779C12.4058 7.01002 12.5588 6.82512 12.6369 6.60572H14.0409C13.8881 7.2126 13.5244 7.74527 13.0149 8.10865C12.5014 8.41449 11.9113 8.56725 11.3139 8.54942C10.8901 8.55543 10.4688 8.4824 10.0719 8.33365C9.70802 8.20373 9.37899 7.99145 9.1105 7.71358C8.84201 7.43572 8.64132 7.09997 8.52394 6.73185C8.37956 6.33711 8.3094 5.91898 8.31696 5.49874C8.31486 5.08319 8.3912 4.67089 8.54196 4.28365C8.67946 3.92163 8.88397 3.58895 9.14489 3.30279C9.39899 3.02929 9.70491 2.80883 10.0449 2.6546C10.4327 2.49302 10.8488 2.41039 11.2689 2.41158C11.7217 2.4014 12.1701 2.5035 12.5739 2.70865C12.9337 2.89176 13.2428 3.16079 13.4739 3.49176C13.711 3.82309 13.8849 4.19508 13.9869 4.58951C14.1024 5.01425 14.139 5.45674 14.0949 5.89469H9.89196C9.88142 6.31531 10.0255 6.725 10.2969 7.04649L10.3329 7.01046ZM12.0969 3.95055C11.9796 3.83424 11.8382 3.74504 11.6827 3.68907C11.5273 3.63311 11.3615 3.61185 11.1969 3.62667C10.973 3.61643 10.7501 3.66278 10.5489 3.76158C10.3969 3.84632 10.2599 3.9557 10.1439 4.08546C9.9641 4.31242 9.85743 4.58892 9.8379 4.87779H12.4479C12.4046 4.54778 12.2706 4.23624 12.0609 3.97779" fill="white"/>
<path d="M16.4079 2.57363V3.67139C16.4804 3.49189 16.5806 3.32504 16.7049 3.17656C16.8347 3.03182 16.983 2.9048 17.1458 2.79863C17.3115 2.69025 17.4898 2.60256 17.6768 2.5376C17.8696 2.47845 18.0693 2.44528 18.2708 2.43872C18.3892 2.44654 18.5066 2.46422 18.6219 2.49233V3.97769C18.5294 3.96401 18.4353 3.96401 18.3428 3.97769C18.247 3.96868 18.1506 3.96868 18.0549 3.97769C17.7973 3.96921 17.5414 4.02156 17.3079 4.13062C17.1155 4.22433 16.9487 4.36304 16.8219 4.53535C16.6866 4.70503 16.5968 4.90671 16.5608 5.1207C16.5052 5.36564 16.4811 5.61629 16.4889 5.86733V8.47769H14.8868V2.60044L16.4079 2.57363Z" fill="white"/>
<path d="M22.9329 2.54683V3.65381H21.7539V6.56079C21.7354 6.7469 21.7798 6.93414 21.8799 7.09209C22.0413 7.20782 22.2414 7.25615 22.4379 7.227C22.5247 7.23604 22.6122 7.23604 22.6989 7.227C22.7794 7.24011 22.8615 7.24011 22.942 7.227V8.44209C22.7921 8.45147 22.6418 8.45147 22.492 8.44209H22.0059C21.7709 8.44202 21.5362 8.42391 21.3039 8.38804C21.093 8.36826 20.8881 8.30692 20.7009 8.20786C20.5295 8.10685 20.3894 7.96072 20.2959 7.78511C20.1912 7.56613 20.1388 7.32556 20.1429 7.08286V3.65381H19.1709V2.54683H20.1429V0.746826H21.7539V2.54683H22.9329Z" fill="white"/>
<path d="M23.7518 0.360107H25.3809V1.66484H23.7518V0.360107ZM25.3809 8.46011H23.7518V2.61011H25.3809V8.46011Z" fill="white"/>
<path d="M26.0289 3.65397V2.57423H27.0009V2.13302C26.9909 1.65841 27.1689 1.19915 27.4959 0.85509C27.6959 0.680731 27.9287 0.547859 28.1806 0.464417C28.4325 0.380974 28.6984 0.348596 28.9629 0.369055H29.3949C29.5354 0.351265 29.6775 0.351265 29.8179 0.369055V1.58414C29.6201 1.57071 29.4217 1.57071 29.224 1.58414C29.1396 1.57585 29.0545 1.58505 28.9739 1.61139C28.8934 1.63773 28.8191 1.68055 28.756 1.73707C28.6535 1.87767 28.6026 2.04936 28.6119 2.22311V2.57423H29.7279V3.67199H28.5939V8.42423H26.983V3.65397H26.0289Z" fill="white"/>
<path d="M30.6639 0.360107H32.275V1.66484H30.6639V0.360107ZM32.275 8.46011H30.6639V2.58286H32.275V8.46011Z" fill="white"/>
<path d="M34.8129 7.01052C35.0975 7.26137 35.4691 7.39098 35.8479 7.37087C36.14 7.38066 36.4274 7.29537 36.6669 7.12785C36.87 7.01498 37.0216 6.82786 37.0899 6.60578H38.4939C38.3409 7.215 37.9734 7.74857 37.4588 8.10871C36.9453 8.41455 36.3553 8.56731 35.7579 8.54948C35.3371 8.55458 34.919 8.48156 34.5249 8.33371C34.1857 8.19026 33.8794 7.97898 33.6249 7.71276C33.3646 7.43287 33.1653 7.10178 33.0399 6.74069C32.8948 6.34302 32.8247 5.92203 32.8329 5.4988C32.8224 4.68965 33.1218 3.90699 33.6699 3.31164C33.9209 3.03244 34.2274 2.8087 34.5699 2.65466C34.957 2.49176 35.374 2.41225 35.7939 2.42087C36.2475 2.4022 36.698 2.50435 37.0989 2.7175C37.4605 2.89385 37.7704 3.16075 37.9989 3.49182C38.2424 3.82385 38.4196 4.19968 38.5209 4.5988C38.6314 5.01213 38.671 5.44093 38.6379 5.8675H34.4079C34.4046 6.28579 34.5514 6.69141 34.8219 7.01052H34.8129ZM36.6219 3.95061C36.5027 3.83646 36.3612 3.74817 36.2064 3.69089C36.0516 3.63361 35.8867 3.60846 35.7219 3.6175C35.5215 3.60721 35.3214 3.64336 35.1372 3.72297C34.953 3.80258 34.7897 3.92372 34.6598 4.07673C34.5642 4.19921 34.4883 4.33603 34.4348 4.4819C34.3978 4.6112 34.3737 4.7438 34.3629 4.87785H36.9729C36.9397 4.54682 36.808 4.23335 36.5949 3.97785" fill="white"/>
<path d="M43.525 7.65898C43.348 7.95711 43.0885 8.19777 42.7779 8.352C42.452 8.49435 42.0984 8.56175 41.7429 8.54976C41.3404 8.55883 40.9419 8.46963 40.582 8.28916C40.2596 8.12783 39.9792 7.89342 39.763 7.60493C39.5429 7.31336 39.3781 6.98384 39.2769 6.63286C39.1623 6.24116 39.1047 5.83513 39.106 5.427C39.1048 5.04544 39.1624 4.66597 39.2769 4.302C39.3761 3.94748 39.541 3.61487 39.763 3.32114C39.9852 3.04771 40.2648 2.8263 40.582 2.67295C40.9294 2.49368 41.3161 2.40394 41.707 2.41191C42.0471 2.40929 42.383 2.48635 42.688 2.63691C42.9903 2.78372 43.2436 3.01528 43.417 3.30312V0.368896H45.0279V8.42407H43.525V7.65898ZM43.417 4.77002C43.3801 4.55948 43.2971 4.3598 43.174 4.18511C43.0542 4.01215 42.894 3.871 42.7074 3.77378C42.5208 3.67656 42.3133 3.62609 42.1029 3.627C41.8727 3.62504 41.646 3.68399 41.446 3.79795C41.2641 3.89739 41.1119 4.04357 41.005 4.22114C40.889 4.40299 40.8067 4.60389 40.7619 4.81484C40.663 5.26851 40.663 5.73842 40.7619 6.19209C40.8185 6.41059 40.9065 6.61971 41.023 6.81304C41.1346 6.98917 41.2856 7.13701 41.464 7.24502C41.6598 7.36036 41.8848 7.41677 42.1119 7.40718C42.3424 7.41045 42.5693 7.35098 42.7689 7.23579C42.942 7.12715 43.087 6.97914 43.192 6.80381C43.3088 6.61849 43.3826 6.40966 43.408 6.19209C43.4615 5.96112 43.4976 5.72622 43.516 5.48984C43.5119 5.24909 43.4755 5.00993 43.408 4.77881" fill="white"/>
<path d="M13.0509 21.5461H22.4019C24.6879 21.5461 27.667 21.546 29.224 22.491C30.1642 23.0399 30.9408 23.8295 31.474 24.7788C32.0071 25.728 32.2774 26.8025 32.257 27.891C32.2994 29.1333 31.9538 30.3581 31.2683 31.3952C30.5829 32.4322 29.5916 33.2302 28.432 33.6781V33.7498C31.609 34.4068 33.3189 36.7829 33.3189 39.9509C33.3189 43.7399 30.619 47.3671 25.489 47.3671H13.0509V21.5461ZM16.48 32.634H23.338C27.253 32.634 28.8279 31.2299 28.8279 28.5119C28.8279 24.9119 26.29 24.4259 23.338 24.4259H16.48V32.634ZM16.48 44.4509H25.0839C28.0179 44.4509 29.9259 42.6508 29.9259 39.8248C29.9259 36.4588 27.2259 35.523 24.3189 35.523H16.489L16.48 44.4509Z" fill="white"/>
<path d="M4.08691 69.8034C4.02739 69.517 3.86794 69.2611 3.63713 69.0814C3.40631 68.9016 3.11914 68.81 2.82688 68.8225C1.70188 68.8225 1.2699 69.8037 1.2699 70.7847C1.2699 71.7657 1.70188 72.6835 2.82688 72.6835C3.16438 72.6789 3.48679 72.5425 3.72546 72.3039C3.96413 72.0652 4.10027 71.7431 4.10492 71.4056H5.32891C5.30115 72.0273 5.03514 72.6141 4.58601 73.0448C4.13689 73.4755 3.53922 73.7168 2.91697 73.7185H2.81788C2.43239 73.7286 2.04912 73.6576 1.69298 73.5097C1.33685 73.3619 1.01583 73.1404 0.750907 72.8602C0.485985 72.58 0.283129 72.2472 0.155448 71.8833C0.0277671 71.5194 -0.0218623 71.1329 0.00987934 70.7486C-0.0228068 70.362 0.0258293 69.9728 0.152592 69.6061C0.279354 69.2393 0.481487 68.903 0.745963 68.619C1.01044 68.3351 1.33142 68.1093 1.68826 67.9568C2.0451 67.8043 2.42985 67.7284 2.81788 67.7335C3.41099 67.6974 3.99539 67.8902 4.45077 68.2719C4.90616 68.6536 5.19796 69.195 5.26596 69.7854H4.06889L4.08691 69.8034Z" fill="white"/>
<path d="M7.96598 69.3538C8.39853 69.3538 8.82131 69.4822 9.18096 69.7225C9.54061 69.9628 9.82095 70.3046 9.98647 70.7042C10.152 71.1038 10.1953 71.5434 10.1109 71.9676C10.0266 72.3919 9.81827 72.7815 9.51241 73.0874C9.20656 73.3932 8.81681 73.6015 8.39258 73.6859C7.96834 73.7703 7.52866 73.7271 7.12904 73.5615C6.72942 73.396 6.38783 73.1157 6.14752 72.756C5.90721 72.3964 5.77893 71.9735 5.77893 71.5409C5.78363 70.9623 6.01558 70.4089 6.42471 69.9998C6.83383 69.5906 7.38741 69.3585 7.96598 69.3538ZM7.96598 72.8549C8.73998 72.8549 8.98298 72.1797 8.98298 71.5497C8.98298 70.9197 8.73998 70.2177 7.96598 70.2177C7.19198 70.2177 6.9849 70.8747 6.9849 71.5497C6.9849 72.2247 7.22798 72.8549 7.96598 72.8549Z" fill="white"/>
<path d="M10.7198 69.4713H11.8358V70.2452C11.9461 69.9872 12.1273 69.7655 12.3582 69.6062C12.5892 69.4469 12.8606 69.3566 13.1409 69.3452C13.2217 69.3364 13.303 69.3364 13.3838 69.3452V70.4073C13.2499 70.3834 13.1147 70.3681 12.9789 70.362C12.1509 70.362 11.8448 70.9563 11.8448 71.7033V73.5661H10.7198V69.4713Z" fill="white"/>
<path d="M14.0499 69.4714H15.1209V70.0111C15.2495 69.8025 15.4319 69.6324 15.6488 69.5184C15.8657 69.4044 16.1092 69.351 16.3539 69.3633C17.6589 69.3633 18.2438 70.4161 18.2438 71.5861C18.2438 72.7561 17.6318 73.7284 16.4438 73.7284C16.201 73.7337 15.9606 73.6788 15.7439 73.5689C15.5273 73.459 15.341 73.2973 15.2018 73.0982V75.0511H14.0768L14.0499 69.4714ZM17.1188 71.5412C17.1188 70.8842 16.8579 70.2093 16.1379 70.2093C15.4179 70.2093 15.1569 70.8662 15.1569 71.5412C15.1569 72.2162 15.4179 72.8464 16.1379 72.8464C16.8579 72.8464 17.1188 72.2162 17.1188 71.5412Z" fill="white"/>
<path d="M20.9439 69.3538C21.3764 69.3538 21.7993 69.4822 22.159 69.7225C22.5186 69.9628 22.799 70.3046 22.9645 70.7042C23.13 71.1038 23.1733 71.5434 23.0889 71.9676C23.0045 72.3919 22.7962 72.7815 22.4903 73.0874C22.1845 73.3932 21.7948 73.6015 21.3706 73.6859C20.9464 73.7703 20.5066 73.7271 20.107 73.5615C19.7073 73.396 19.3659 73.1157 19.1255 72.756C18.8852 72.3964 18.757 71.9735 18.757 71.5409C18.7593 70.9616 18.9905 70.4067 19.4001 69.9971C19.8097 69.5875 20.3646 69.3561 20.9439 69.3538ZM20.9439 72.8549C21.7179 72.8549 21.9609 72.1797 21.9609 71.5497C21.9609 70.9197 21.7179 70.2177 20.9439 70.2177C20.1699 70.2177 19.9629 70.8747 19.9629 71.5497C19.9629 72.2247 20.1879 72.8549 20.9439 72.8549Z" fill="white"/>
<path d="M23.7969 69.4713H24.9129V70.2451C25.024 69.9878 25.2054 69.7671 25.4361 69.6079C25.6669 69.4488 25.9378 69.3576 26.2178 69.3451C26.2985 69.3352 26.3801 69.3352 26.4608 69.3451V70.4073C26.327 70.3834 26.1917 70.3681 26.0559 70.362C25.2279 70.362 24.9309 70.9562 24.9309 71.7032V73.5661H23.7969V69.4713Z" fill="white"/>
<path d="M26.9109 70.749C26.9829 69.669 27.9279 69.3538 28.8729 69.3538C29.8179 69.3538 30.6729 69.5428 30.6729 70.5328V72.6659C30.6569 72.9727 30.706 73.2794 30.8169 73.5659H29.6559C29.6095 73.4328 29.5852 73.293 29.5838 73.152C29.3994 73.3298 29.1805 73.4678 28.9406 73.5576C28.7006 73.6474 28.4448 73.6871 28.1889 73.674C28.0125 73.6988 27.8328 73.685 27.6622 73.6336C27.4916 73.5822 27.3342 73.4945 27.2008 73.3765C27.0674 73.2585 26.961 73.1128 26.8892 72.9498C26.8174 72.7868 26.7818 72.6103 26.7848 72.4321C26.7848 71.5321 27.4959 71.271 28.1889 71.181C28.8819 71.091 29.5389 71.1089 29.5389 70.6409C29.5389 70.1729 29.2148 70.0828 28.8098 70.0828H28.7019C28.5292 70.0828 28.3634 70.1509 28.2404 70.2722C28.1175 70.3935 28.0472 70.5583 28.0449 70.731H26.9019L26.9109 70.749ZM29.5209 71.577C29.2425 71.7233 28.9351 71.8063 28.6209 71.82C28.2699 71.892 27.9729 71.9999 27.9729 72.4229C27.9729 72.8459 28.2969 72.963 28.6749 72.963C28.8937 72.9782 29.1097 72.9076 29.2776 72.7666C29.4455 72.6255 29.5521 72.4252 29.5749 72.2071C29.5839 72.1444 29.5839 72.0804 29.5749 72.0177V71.577H29.5209Z" fill="white"/>
<path d="M33.0129 69.4711H33.8409V70.2178H33.0129V72.27C33.0129 72.657 33.1119 72.7648 33.4989 72.7648C33.6152 72.7835 33.7337 72.7835 33.8499 72.7648V73.6648C33.6343 73.6828 33.4175 73.6828 33.2019 73.6648C32.4909 73.6648 31.8969 73.503 31.8969 72.684V70.2358H31.2129V69.4799H31.8969V68.238H33.0129V69.4711Z" fill="white"/>
<path d="M35.5239 68.8226H34.3989V67.9226H35.5239V68.8226ZM34.3989 69.4796H35.5239V73.6104H34.3989V69.4796Z" fill="white"/>
<path d="M38.2689 69.3538H38.3319C38.7622 69.3522 39.1832 69.4776 39.5425 69.7141C39.9019 69.9507 40.1835 70.2882 40.3521 70.684C40.5207 71.0798 40.5688 71.5165 40.4904 71.9395C40.412 72.3625 40.2106 72.7528 39.9113 73.0619C39.6121 73.371 39.2284 73.585 38.8082 73.6771C38.388 73.7692 37.9499 73.7356 37.5488 73.58C37.1478 73.4244 36.8015 73.1536 36.5534 72.8022C36.3053 72.4507 36.1663 72.0338 36.1539 71.6038V71.5409C36.1086 71.0144 36.2719 70.4911 36.6085 70.0837C36.9452 69.6764 37.4283 69.4177 37.9539 69.363C38.0557 69.354 38.1581 69.354 38.2599 69.363L38.2689 69.3538ZM38.2599 72.8549C39.0339 72.8549 39.2769 72.1887 39.2769 71.5497C39.2769 70.9107 39.0519 70.227 38.2599 70.227C37.4679 70.227 37.2789 70.8747 37.2789 71.5497C37.2789 72.2247 37.5039 72.8549 38.2599 72.8549Z" fill="white"/>
<path d="M41.1129 69.4711H42.1839V70.0468C42.318 69.834 42.504 69.6591 42.7244 69.5379C42.9448 69.4167 43.1924 69.3531 43.4439 69.3538C44.6409 69.3538 44.9559 70.0469 44.9559 71.0549V73.6107H43.8309V71.2799C43.8309 70.5959 43.6239 70.263 43.1109 70.263C42.5979 70.263 42.2109 70.614 42.2109 71.442V73.6107H41.1129V69.4711Z" fill="white"/>
<path d="M45.0549 61.2087H0.000854492V64.0888H45.0549V61.2087Z" fill="white"/>
<path d="M42.3009 57.987C42.3027 57.7222 42.3829 57.4637 42.5313 57.2443C42.6797 57.025 42.8898 56.8549 43.135 56.7548C43.3802 56.6547 43.6495 56.6291 43.9091 56.6818C44.1686 56.7346 44.4067 56.8631 44.5933 57.051C44.78 57.2389 44.9068 57.4779 44.9578 57.7378C45.0089 57.9977 44.9817 58.2668 44.8799 58.5113C44.7782 58.7558 44.6063 58.9646 44.386 59.1116C44.1657 59.2585 43.9068 59.337 43.642 59.337C43.2855 59.3346 42.9445 59.1913 42.6932 58.9384C42.442 58.6855 42.3009 58.3435 42.3009 57.987ZM44.713 57.987C44.713 57.7752 44.6501 57.5681 44.5324 57.392C44.4148 57.2159 44.2475 57.0788 44.0518 56.9978C43.8561 56.9167 43.6408 56.8954 43.433 56.9367C43.2253 56.978 43.0344 57.08 42.8846 57.2298C42.7348 57.3796 42.6328 57.5705 42.5915 57.7783C42.5502 57.986 42.5714 58.2013 42.6525 58.397C42.7335 58.5927 42.8709 58.7601 43.047 58.8778C43.2231 58.9955 43.4302 59.0579 43.642 59.0579C43.9253 59.0556 44.1963 58.9423 44.3967 58.742C44.597 58.5416 44.7106 58.2703 44.713 57.987Z" fill="white"/>
<path d="M43.8759 57.9958C43.9418 58.0197 43.9986 58.0635 44.038 58.1215L44.1189 58.2744L44.299 58.6255H43.9209L43.75 58.2836C43.7363 58.254 43.718 58.2268 43.6959 58.2028C43.6826 58.1759 43.6622 58.1532 43.6367 58.1373C43.6113 58.1214 43.5819 58.1129 43.5519 58.1127H43.408V58.6436H43.048V57.2395H43.6599C43.7458 57.2406 43.831 57.256 43.9119 57.2848C43.9876 57.3091 44.0517 57.36 44.092 57.4285C44.1054 57.4847 44.1054 57.5432 44.092 57.5994C44.1095 57.6673 44.1095 57.7389 44.092 57.8068C44.0742 57.8444 44.0491 57.8779 44.0182 57.9057C43.9873 57.9335 43.9511 57.9548 43.9119 57.9686L43.8759 57.9958ZM43.417 57.8697H43.6509C43.6809 57.8683 43.7097 57.8567 43.7325 57.8372C43.7554 57.8176 43.7709 57.791 43.7769 57.7616C43.7859 57.7201 43.7859 57.677 43.7769 57.6354C43.771 57.6115 43.7588 57.5896 43.7413 57.5722C43.7239 57.5547 43.7019 57.5424 43.6779 57.5366H43.417V57.8697Z" fill="white"/>
<path d="M22.6089 57.0328C18.141 57.0328 13.7736 55.708 10.0587 53.2258C6.34376 50.7436 3.44828 47.2154 1.7385 43.0876C0.0287157 38.9598 -0.418651 34.4179 0.452989 30.0358C1.32463 25.6538 3.47617 21.6287 6.63544 18.4694C9.7947 15.3102 13.8198 13.1584 18.2018 12.2868C22.5839 11.4151 27.126 11.8628 31.2538 13.5726C35.3816 15.2824 38.9097 18.1774 41.3919 21.8923C43.8741 25.6072 45.199 29.9748 45.199 34.4427C45.1706 40.4252 42.7815 46.1549 38.5512 50.3852C34.3209 54.6155 28.5914 57.0044 22.6089 57.0328ZM22.6089 14.796C18.7205 14.7943 14.9191 15.9455 11.6853 18.1047C8.45151 20.2638 5.93074 23.3338 4.44191 26.9258C2.95307 30.5179 2.56305 34.4706 3.32119 38.2844C4.07933 42.0981 5.9516 45.6014 8.70108 48.3509C11.4506 51.1004 14.9537 52.9726 18.7674 53.7307C22.5811 54.4889 26.5342 54.0989 30.1262 52.6101C33.7182 51.1213 36.788 48.6004 38.9471 45.3666C41.1063 42.1328 42.2577 38.331 42.256 34.4427C42.2299 29.24 40.1517 24.2581 36.4728 20.5792C32.7939 16.9003 27.8116 14.8221 22.6089 14.796Z" fill="white"/>
</svg>
