<svg fill="none" viewBox="0 0 169 39" xmlns="http://www.w3.org/2000/svg" style="width:10.5rem"><path d="M34.6.821a3 3 0 0 0-2.2.91 2.93 2.93 0 0 0-.93 2.17v24l-26.14-26a3.14 3.14 0 0 0-4.4 0A2.91 2.91 0 0 0 0 4.071v31.32a3 3 0 0 0 .93 2.23 3.14 3.14 0 0 0 4.4 0 3 3 0 0 0 .93-2.23v-23.82l26.13 26a3.16 3.16 0 0 0 5.1-1.017 3 3 0 0 0 .23-1.213V3.891a2.931 2.931 0 0 0-.93-2.17 3.061 3.061 0 0 0-2.19-.9ZM167.651 1.721a3.012 3.012 0 0 0-2.2-.91h-31.47a2.996 2.996 0 0 0-2.2.91 2.93 2.93 0 0 0-.93 2.17v31.47a3.002 3.002 0 0 0 .93 2.23 3.14 3.14 0 0 0 4.4 0 3.002 3.002 0 0 0 .94-2.23v-12.18h28.33a3.094 3.094 0 0 0 2.2-.91 3.002 3.002 0 0 0 .94-2.23V3.891a2.939 2.939 0 0 0-.94-2.17Zm-30.53 5.31h25.24v9.93h-25.24v-9.93ZM121.94.821H90.48a3.05 3.05 0 0 0-2.21.91 2.93 2.93 0 0 0-.93 2.17 3 3 0 0 0 .93 2.23 3.09 3.09 0 0 0 2.21.91h12.59v28.33a3.003 3.003 0 0 0 .93 2.23 3.151 3.151 0 0 0 4.41 0 2.988 2.988 0 0 0 .93-2.23V7.031h12.6a3.094 3.094 0 0 0 2.2-.91 2.988 2.988 0 0 0 .93-2.23 2.93 2.93 0 0 0-.93-2.17 2.992 2.992 0 0 0-2.2-.9Z" fill="#fff"></path><path d="M50.75 1.691a2.88 2.88 0 0 0-2.19-.93 3 3 0 0 0-2.23.93 3.14 3.14 0 0 0 0 4.4l13.55 13.55-13.52 13.55a3.14 3.14 0 0 0 0 4.4 2.999 2.999 0 0 0 2.23.9 3 3 0 0 0 2.18-.94l17.93-17.93-17.95-17.93Z" fill="#fff"></path><path d="m70.8 21.752-4.42 4.4 11.42 11.4a2.941 2.941 0 0 0 2.23.94 2.9 2.9 0 0 0 2.17-.94 3.15 3.15 0 0 0 0-4.39l-11.4-11.41ZM80.03.761a3 3 0 0 0-2.23.93l-11.44 11.4 4.34 4.33.07.07 11.4-11.41a3.1 3.1 0 0 0 0-4.39 2.92 2.92 0 0 0-2.14-.93Z" fill="#fff"></path></svg>