<svg width="175" height="34" viewBox="0 0 175 34" fill="none" xmlns="http://www.w3.org/2000/svg">
<path d="M109.346 5.32437C109.61 5.3546 109.877 5.32918 110.131 5.24966C110.384 5.17014 110.618 5.03808 110.817 4.8625C111.017 4.68692 111.177 4.47151 111.288 4.23013C111.399 3.98874 111.458 3.72669 111.461 3.46108C111.461 2.47108 110.84 1.60747 109.346 1.60747H106.646V5.32437H109.346ZM105.998 0.986084H109.346C111.335 0.986084 112.046 2.22808 112.046 3.46108C112.059 4.01056 111.88 4.5475 111.54 4.97939C111.2 5.41129 110.72 5.71153 110.183 5.82842C109.89 5.91017 109.587 5.94946 109.283 5.94531H106.583V9.26626H105.962L105.998 0.986084Z" fill="white"/>
<path d="M32.756 0.977295H23.567V10.1663H32.756V0.977295Z" fill="white"/>
<path d="M32.756 12.6501H23.567V21.8392H32.756V12.6501Z" fill="white"/>
<path d="M32.756 24.1877H23.567V33.3768H32.756V24.1877Z" fill="white"/>
<path d="M21.218 12.6501H12.0291V21.8392H21.218V12.6501Z" fill="white"/>
<path d="M21.218 24.1877H12.0291V33.3768H21.218V24.1877Z" fill="white"/>
<path d="M9.54503 24.1877H0.355957V33.3768H9.54503V24.1877Z" fill="white"/>
<path d="M42.1879 16.6192H50.2879C51.0854 16.6539 51.8816 16.5246 52.6271 16.2391C53.3726 15.9536 54.0516 15.5179 54.6219 14.9594C55.1923 14.4008 55.6419 13.7313 55.9429 12.9919C56.2439 12.2526 56.3899 11.4592 56.3719 10.6611C56.3719 8.42908 55.6249 6.81842 54.0139 5.82842C52.8751 5.08003 51.521 4.72852 50.162 4.8291H42.341V16.6192H42.1879ZM38.219 33.3861V0.986084H49.766C52.466 0.986084 54.608 1.35507 56.966 3.21807C58.4981 4.51044 59.5919 6.24631 60.0967 8.18608C60.6016 10.1259 60.4927 12.1744 59.785 14.0497C59.0774 15.925 57.8057 17.5347 56.1452 18.6574C54.4847 19.78 52.5169 20.3601 50.5129 20.3181H42.3139V33.3593L38.219 33.3861Z" fill="white"/>
<path d="M67.64 15.6291H75.83C80.051 15.6291 82.04 12.6501 82.04 9.79712C82.1019 8.99445 81.9642 8.18914 81.6391 7.45264C81.314 6.71613 80.8118 6.07138 80.177 5.57617C78.9623 4.78504 77.5301 4.39495 76.082 4.4604H67.64V15.6291ZM81.914 33.3861L74.966 19.1034H67.64V33.3861H63.545V0.986084H76.1C78.8 0.986084 80.942 1.60738 82.553 3.09238C83.5543 3.90114 84.3635 4.92202 84.9222 6.08154C85.481 7.24106 85.7754 8.51002 85.784 9.79712C85.8472 11.7237 85.2901 13.6197 84.1948 15.2059C83.0996 16.7921 81.524 17.9847 79.7 18.6082L79.0791 18.8604L86.405 33.3861H81.914Z" fill="white"/>
<path d="M94.7031 0.977295H90.608V33.3773H94.7031V0.977295Z" fill="white"/>
<path d="M100.661 0.977295H100.04V33.3773H100.661V0.977295Z" fill="white"/>
<path d="M113.45 3.21764H114.071L114.188 4.20773C114.369 3.86098 114.635 3.56566 114.961 3.3486C115.286 3.13155 115.661 2.99985 116.051 2.96584C116.307 2.94607 116.563 2.98946 116.798 3.09196L116.672 3.71291C116.429 3.71291 116.303 3.58678 116.051 3.58678C115.655 3.59662 115.27 3.71853 114.94 3.93835C114.61 4.15816 114.349 4.46678 114.188 4.82868V9.04963H113.567V3.21764H113.45Z" fill="white"/>
<path d="M118.04 9.26602H118.661V3.30791H118.04V9.26602ZM118.04 1.68809H118.661V1.06714H118.04V1.68809Z" fill="white"/>
<path d="M120.65 3.21759H121.262V4.11759C121.531 3.78756 121.874 3.52587 122.264 3.35382C122.653 3.18176 123.078 3.10457 123.503 3.12794C123.764 3.10601 124.027 3.14324 124.272 3.23736C124.517 3.33148 124.737 3.47974 124.916 3.6711C125.095 3.86246 125.229 4.09224 125.307 4.34259C125.385 4.59293 125.405 4.85762 125.366 5.1169V9.21173H124.745V5.1169C124.745 4.2169 124.367 3.62276 123.377 3.62276C122.961 3.62751 122.552 3.73104 122.185 3.92511C121.817 4.11917 121.501 4.3984 121.262 4.73897V9.23897H120.65V3.21759Z" fill="white"/>
<path d="M129.83 3.09194C130.509 3.04461 131.179 3.26782 131.693 3.71288L131.324 4.20771C130.886 3.898 130.366 3.72586 129.83 3.71288C128.588 3.71288 127.724 4.70267 127.724 6.19667C127.724 7.69067 128.624 8.80702 129.83 8.80702C130.429 8.80899 131.006 8.58715 131.45 8.18564L131.819 8.55478C131.558 8.81088 131.246 9.00974 130.903 9.13837C130.561 9.267 130.195 9.32265 129.83 9.30185C128.219 9.30185 127.13 8.05999 127.13 6.07099C127.091 5.6937 127.132 5.3122 127.25 4.9517C127.368 4.59121 127.56 4.25981 127.815 3.97875C128.07 3.69769 128.381 3.47324 128.728 3.32045C129.075 3.16766 129.451 3.08991 129.83 3.09194Z" fill="white"/>
<path d="M133.43 9.26602H134.051V3.30791H133.43V9.26602ZM133.43 1.68809H134.051V1.06714H133.43V1.68809Z" fill="white"/>
<path d="M138.641 8.92456C139.883 8.92456 140.63 7.80856 140.63 6.22456C140.63 4.64056 139.883 3.74033 138.641 3.74033C138.276 3.75005 137.919 3.84491 137.597 4.01675C137.275 4.18859 136.998 4.43277 136.787 4.73042V7.96128C137.251 8.52186 137.917 8.87753 138.641 8.95137V8.92456ZM136.904 11.6514H136.166V3.20947H136.787L136.904 4.10947C137.152 3.81903 137.456 3.58174 137.797 3.41162C138.139 3.2415 138.512 3.14197 138.893 3.11938C140.387 3.11938 141.377 4.23556 141.377 6.22456C141.377 8.21356 140.477 9.44663 138.893 9.44663C138.507 9.45164 138.125 9.36436 137.779 9.19219C137.433 9.02001 137.133 8.76781 136.904 8.45654V11.6514Z" fill="white"/>
<path d="M143.483 0.977295H142.862V9.29329H143.483V0.977295Z" fill="white"/>
<path d="M145.967 5.66632H149.819C149.819 4.55032 149.324 3.55123 148.082 3.55123C147.527 3.56923 146.999 3.79783 146.606 4.19064C146.214 4.58344 145.985 5.1111 145.967 5.66632ZM148.082 3.05641C149.693 3.05641 150.44 4.17232 150.44 5.66632V6.16114H145.94C145.94 7.77214 146.687 8.7715 148.181 8.7715C148.847 8.75413 149.493 8.53747 150.035 8.15011L150.413 8.64537C149.783 9.05254 149.048 9.2682 148.298 9.26632C146.435 9.26632 145.445 8.02446 145.445 6.03546C145.377 5.66085 145.394 5.2757 145.496 4.9087C145.597 4.5417 145.78 4.20237 146.031 3.91598C146.282 3.62959 146.594 3.40342 146.945 3.2546C147.295 3.10578 147.675 3.03806 148.055 3.05641" fill="white"/>
<path d="M151.925 8.30308C152.49 8.63419 153.133 8.80825 153.788 8.80713C154.787 8.80713 155.282 8.42913 155.282 7.68213C155.282 5.94513 151.682 7.06108 151.682 4.70308C151.682 3.71308 152.582 3.09204 153.788 3.09204C154.477 3.1263 155.152 3.29426 155.777 3.58687L155.525 4.08213C154.981 3.83157 154.387 3.70537 153.788 3.71299C152.888 3.71299 152.429 4.20776 152.429 4.82876C152.429 6.56576 156.029 5.44981 156.029 7.80781C156.029 8.80681 155.291 9.41885 153.923 9.41885C153.137 9.42302 152.365 9.21161 151.691 8.80713L151.925 8.30308Z" fill="white"/>
<path d="M160.493 3.86602H159.377V3.37119H160.493V3.24507C160.493 1.50807 161.393 0.886963 162.725 0.886963C162.977 0.886963 163.346 0.887086 163.472 1.01309L163.346 1.50791C163.142 1.4534 162.934 1.41163 162.725 1.38223C161.735 1.38223 161.114 1.87695 161.114 3.11895V3.24507H162.851V3.73989H161.114V9.20317H160.493V3.86602Z" fill="white"/>
<path d="M166.325 8.92402C167.567 8.92402 168.44 7.80802 168.44 6.22402C168.44 4.64002 167.54 3.73979 166.325 3.73979C165.11 3.73979 164.219 4.73002 164.219 6.22402C164.219 7.71802 165.119 8.92402 166.325 8.92402ZM166.325 3.09204C166.721 3.09331 167.113 3.17624 167.476 3.33594C167.839 3.49563 168.165 3.7287 168.433 4.02017C168.702 4.31163 168.908 4.65544 169.037 5.03003C169.167 5.40462 169.218 5.80159 169.187 6.19678C169.187 8.18578 168.062 9.41885 166.325 9.41885C164.588 9.41885 163.472 8.18578 163.472 6.19678C163.472 4.20778 164.714 3.09204 166.325 3.09204Z" fill="white"/>
<path d="M170.798 3.21764H171.419L171.545 4.20773C171.726 3.86098 171.992 3.56565 172.318 3.3486C172.643 3.13154 173.018 2.99985 173.408 2.96583C173.661 2.94607 173.914 2.98949 174.146 3.09196L174.02 3.7129C173.777 3.7129 173.651 3.58678 173.408 3.58678C173.012 3.59662 172.627 3.71853 172.297 3.93834C171.967 4.15816 171.706 4.46678 171.545 4.82868V9.04962H170.924V3.21764H170.798Z" fill="white"/>
<path d="M109.346 17.1227C109.61 17.1529 109.877 17.1275 110.131 17.048C110.384 16.9685 110.618 16.8369 110.817 16.6613C111.017 16.4857 111.177 16.2699 111.288 16.0285C111.399 15.7871 111.458 15.5255 111.461 15.2599C111.461 14.2609 110.84 13.3966 109.346 13.3966H106.646V17.1227H109.346ZM105.998 12.7756H109.346C111.335 12.7756 112.046 14.0179 112.046 15.2599C112.056 15.8078 111.876 16.3424 111.537 16.7725C111.197 17.2025 110.718 17.5009 110.183 17.6175L112.046 21.2175H111.299L109.562 17.6175H106.583V21.0918H105.962L105.998 12.7756Z" fill="white"/>
<path d="M114.683 17.4923H118.661C118.661 16.3763 118.166 15.386 116.924 15.386C116.35 15.376 115.794 15.5908 115.376 15.9841C114.957 16.3774 114.709 16.9185 114.683 17.4923ZM116.798 14.8824C118.535 14.8824 119.282 16.0074 119.282 17.5824V18.0772H114.566C114.566 19.8142 115.304 20.7772 116.798 20.7772C117.471 20.7846 118.127 20.566 118.661 20.1562L119.03 20.6603C118.367 21.1045 117.595 21.3595 116.798 21.3981C114.935 21.3981 113.945 20.156 113.945 18.05C113.945 15.944 115.187 14.8191 116.798 14.8191" fill="white"/>
<path d="M129.83 20.7232C131.072 20.7232 131.819 19.6072 131.819 18.0232C131.819 16.4392 131.072 15.4221 129.83 15.4221C129.464 15.4304 129.105 15.5244 128.781 15.6963C128.458 15.8682 128.179 16.1134 127.967 16.4122V19.7604C128.178 20.0604 128.457 20.3068 128.78 20.4802C129.104 20.6537 129.463 20.7492 129.83 20.7593V20.7232ZM127.967 23.6122H127.229V15.0442H127.85L127.967 15.9442C128.194 15.6302 128.493 15.3754 128.839 15.2015C129.186 15.0276 129.569 14.9398 129.956 14.9453C131.45 14.9453 132.44 16.07 132.44 18.05C132.44 20.03 131.54 21.4075 129.956 21.4075C129.569 21.4129 129.186 21.3247 128.839 21.1508C128.493 20.9769 128.194 20.7222 127.967 20.4082V23.6122Z" fill="white"/>
<path d="M121.64 20.2193C122.204 20.5516 122.848 20.7258 123.503 20.7233C124.493 20.7233 124.988 20.2195 124.988 19.6075C124.988 17.7445 121.262 18.8603 121.262 16.6193C121.281 16.364 121.351 16.1152 121.469 15.888C121.587 15.6608 121.75 15.4602 121.947 15.2978C122.145 15.1354 122.374 15.0146 122.619 14.9432C122.865 14.8718 123.123 14.8514 123.377 14.8825C124.069 14.9004 124.749 15.0722 125.366 15.3862L125.114 15.8814C124.572 15.6236 123.977 15.4943 123.377 15.5035C122.477 15.5035 121.883 16.0073 121.883 16.6193C121.883 18.4823 125.609 17.2405 125.609 19.6075C125.609 20.5975 124.862 21.3443 123.377 21.3443C122.588 21.3633 121.811 21.1472 121.145 20.7233L121.64 20.2193Z" fill="white"/>
<path d="M137.03 20.7233C138.398 20.7233 139.262 19.6073 139.262 18.0233C139.262 16.4393 138.362 15.4222 137.03 15.4222C136.708 15.4337 136.392 15.5119 136.102 15.6516C135.812 15.7913 135.554 15.9895 135.344 16.2339C135.135 16.4783 134.978 16.7635 134.884 17.0715C134.79 17.3795 134.76 17.7035 134.798 18.0233C134.798 19.7603 135.698 20.7233 137.03 20.7233ZM137.03 14.8826C137.426 14.8851 137.817 14.9689 138.178 15.1291C138.54 15.2893 138.865 15.5224 139.133 15.8138C139.4 16.1051 139.605 16.4483 139.734 16.8223C139.863 17.1963 139.914 17.5929 139.883 17.9873C139.883 19.9763 138.767 21.3443 137.03 21.3443C135.293 21.3443 134.177 20.1023 134.177 17.9873C134.146 17.5929 134.197 17.1963 134.326 16.8223C134.455 16.4483 134.66 16.1051 134.927 15.8138C135.195 15.5224 135.52 15.2893 135.882 15.1291C136.244 14.9689 136.634 14.8851 137.03 14.8826Z" fill="white"/>
<path d="M141.998 15.0081H142.619V15.9081C142.896 15.5894 143.239 15.3353 143.625 15.1628C144.01 14.9902 144.429 14.9036 144.851 14.9092C146.219 14.9092 146.714 15.8093 146.714 17.0243V21.2452H146.093V17.0243C146.093 16.1243 145.724 15.5301 144.725 15.5301C144.308 15.5213 143.896 15.6191 143.527 15.8145C143.158 16.0098 142.846 16.2963 142.619 16.6463V21.2452H141.998V15.0081Z" fill="white"/>
<path d="M148.946 20.2192C149.511 20.5503 150.154 20.7244 150.809 20.7232C151.808 20.7232 152.303 20.2195 152.303 19.6075C152.303 17.7445 148.577 18.8602 148.577 16.6192C148.595 16.3644 148.664 16.116 148.781 15.8888C148.898 15.6617 149.06 15.4607 149.257 15.2982C149.454 15.1357 149.682 15.015 149.927 14.9436C150.172 14.8721 150.43 14.8513 150.683 14.8825C151.375 14.8992 152.055 15.071 152.672 15.3861L152.429 15.8813C151.883 15.6243 151.286 15.4951 150.683 15.5034C149.783 15.5034 149.198 16.0072 149.198 16.6192C149.198 18.4822 152.924 17.2405 152.924 19.6075C152.924 20.5975 152.177 21.3442 150.683 21.3442C149.894 21.3621 149.117 21.1461 148.451 20.7232L148.946 20.2192Z" fill="white"/>
<path d="M160.862 20.7228C162.104 20.7228 162.851 19.6068 162.851 18.0228C162.851 16.4388 162.104 15.4217 160.862 15.4217C160.497 15.4314 160.14 15.5263 159.818 15.6981C159.496 15.8699 159.219 16.1141 159.008 16.4118V19.76C159.208 20.0691 159.483 20.3227 159.807 20.4974C160.131 20.672 160.494 20.7618 160.862 20.7588V20.7228ZM158.009 12.8118H158.909V15.9169C159.154 15.6247 159.456 15.3851 159.796 15.2134C160.137 15.0416 160.508 14.941 160.889 14.9176C162.383 14.9176 163.373 16.0428 163.373 18.0228C163.373 20.0028 162.473 21.3798 160.889 21.3798C160.487 21.3715 160.092 21.2782 159.729 21.106C159.366 20.9338 159.044 20.6867 158.783 20.3809L158.657 21.2809H158L158.009 12.8118Z" fill="white"/>
<path d="M166.208 12.7668H165.587V21.2088H166.208V12.7668Z" fill="white"/>
<path d="M169.061 17.4923H173.03C173.03 16.3763 172.535 15.386 171.293 15.386C170.72 15.3761 170.165 15.591 169.748 15.9845C169.331 16.3781 169.084 16.9193 169.061 17.4923ZM171.167 14.8824C172.904 14.8824 173.651 16.0074 173.651 17.5824V18.0772H169.061C169.061 19.8142 169.808 20.7772 171.293 20.7772C171.966 20.7846 172.622 20.566 173.156 20.1562L173.525 20.6603C172.862 21.1058 172.09 21.3609 171.293 21.3981C169.43 21.3981 168.44 20.156 168.44 18.05C168.44 15.944 169.556 14.8191 171.14 14.8191" fill="white"/>
<path d="M106.745 24.6921H105.998V33.3861H106.745V24.6921Z" fill="white"/>
<path d="M109.598 27.0502H110.219V28.0403C110.515 27.7031 110.877 27.4303 111.283 27.2383C111.688 27.0464 112.129 26.9397 112.577 26.9246C114.071 26.9246 114.566 27.8246 114.566 29.0396V33.3863H113.819V28.8863C113.819 27.9863 113.45 27.3926 112.451 27.3926C112.023 27.4239 111.606 27.5392 111.223 27.7323C110.84 27.9253 110.499 28.1924 110.219 28.5176V33.3595H109.598V27.0502Z" fill="white"/>
<path d="M116.546 27.05H117.293L119.3 32.6663L121.28 27.0773H122.027L119.669 33.3773H118.922L116.546 27.05Z" fill="white"/>
<path d="M124.367 29.6604H128.462C128.462 28.4184 127.967 27.4192 126.608 27.4192C126.026 27.4572 125.478 27.7056 125.066 28.1179C124.653 28.5302 124.405 29.0785 124.367 29.6604ZM126.725 26.9604C128.462 26.9604 129.209 28.2024 129.209 29.6604V30.1552H124.367C124.367 31.8922 125.114 33.0081 126.725 33.0081C127.437 33.0149 128.132 32.7977 128.714 32.3872L129.083 32.8825C128.414 33.3164 127.646 33.5731 126.851 33.6291C124.862 33.6291 123.872 32.3872 123.872 30.1552C123.806 29.7483 123.832 29.332 123.947 28.9362C124.061 28.5403 124.262 28.1746 124.535 27.8657C124.808 27.5567 125.146 27.3121 125.524 27.1493C125.903 26.9865 126.313 26.9098 126.725 26.9243" fill="white"/>
<path d="M131.567 32.3872C132.174 32.7428 132.854 32.9551 133.556 33.0082C134.672 33.0082 135.167 32.5134 135.167 31.8924C135.167 30.0294 131.324 31.1452 131.324 28.7872C131.324 27.6712 132.224 27.05 133.556 27.05C134.282 27.0843 134.996 27.2524 135.662 27.5453L135.419 28.0401C134.884 27.7482 134.291 27.5793 133.682 27.5453C132.782 27.5453 132.188 28.0401 132.188 28.6611C132.188 30.5241 136.04 29.2823 136.04 31.7663C136.04 32.8823 135.14 33.5034 133.682 33.5034C132.853 33.5256 132.035 33.3102 131.324 32.8825L131.567 32.3872Z" fill="white"/>
<path d="M138.641 27.5452H137.525V26.9243H138.641V24.9441H139.388V26.9243H141.251V27.5452H139.388V31.7662C139.388 32.5132 139.64 33.0081 140.387 33.0081C140.703 33.0054 141.013 32.9217 141.287 32.765L141.539 33.2603C141.173 33.508 140.739 33.6366 140.297 33.629C139.181 33.629 138.677 33.0083 138.677 31.8923L138.641 27.5452Z" fill="white"/>
<path d="M143.366 27.0499H144.104V27.9499C144.391 27.6407 144.737 27.393 145.122 27.2213C145.507 27.0496 145.923 26.9576 146.345 26.951C146.72 26.8967 147.103 26.9798 147.422 27.1848C147.741 27.3898 147.975 27.7033 148.082 28.0672C148.378 27.7296 148.739 27.4563 149.145 27.2644C149.551 27.0724 149.991 26.9656 150.44 26.951C151.808 26.951 152.303 27.8511 152.303 29.0661V33.4132H151.808V28.9132C151.808 28.0132 151.43 27.4191 150.44 27.4191C150.023 27.4233 149.613 27.5278 149.245 27.7236C148.877 27.9194 148.562 28.2008 148.325 28.5441V33.3859H147.587V28.8859C147.587 27.9859 147.209 27.3922 146.219 27.3922C145.802 27.3965 145.392 27.501 145.024 27.6968C144.656 27.8926 144.341 28.1739 144.104 28.5172V33.3591H143.366V27.0499Z" fill="white"/>
<path d="M155.651 29.6604H159.746C159.746 28.4184 159.251 27.4192 157.883 27.4192C157.302 27.4575 156.755 27.7063 156.344 28.1188C155.933 28.5313 155.687 29.0793 155.651 29.6604ZM157.883 26.9604C159.62 26.9604 160.367 28.2024 160.367 29.6604V30.1552H155.525C155.525 31.8922 156.272 33.0081 157.883 33.0081C158.595 33.0149 159.291 32.7977 159.872 32.3872L160.241 32.8825C159.572 33.3164 158.804 33.5731 158.009 33.6291C156.02 33.6291 155.03 32.3872 155.03 30.1552C154.965 29.7483 154.99 29.332 155.105 28.9362C155.22 28.5403 155.421 28.1746 155.693 27.8657C155.966 27.5567 156.304 27.3121 156.683 27.1493C157.061 26.9865 157.471 26.9098 157.883 26.9243" fill="white"/>
<path d="M162.977 27.0502H163.598V28.0403C163.894 27.7031 164.256 27.4303 164.661 27.2383C165.067 27.0464 165.508 26.9397 165.956 26.9246C167.441 26.9246 167.945 27.8246 167.945 29.0396V33.3863H167.198V28.8863C167.198 27.9863 166.82 27.3926 165.83 27.3926C165.402 27.4239 164.985 27.5392 164.602 27.7323C164.219 27.9253 163.878 28.1924 163.598 28.5176V33.3595H162.977V27.0502Z" fill="white"/>
<path d="M171.293 27.5452H170.177V26.9243H171.293V24.9441H172.04V26.9243H173.903V27.5452H172.04V31.7662C172.04 32.5132 172.283 33.0081 173.03 33.0081C173.346 33.0035 173.655 32.9199 173.93 32.765L174.173 33.2603C173.808 33.5108 173.373 33.6396 172.931 33.629C171.815 33.629 171.32 33.0083 171.32 31.8923L171.293 27.5452Z" fill="white"/>
<path d="M155.03 21.2175H155.651V15.1337H155.03V21.2175ZM155.03 13.5227H155.651V12.7756H155.03V13.5227Z" fill="white"/>
</svg>
