<svg>
    <symbol id="button-next" xmlns="http://www.w3.org/2000/svg" viewBox="0 0 74.35 74.35">
        <path
          stroke-width="2"
          style="stroke-linecap:round;stroke-linejoin:round;fill:none;stroke:#FFF;opacity:0.7"
          d="m33.11 28.27 8.13 8.14-8.13 8.14"
        >
        </path>
    </symbol>
    <symbol id="button-prev" xmlns="http://www.w3.org/2000/svg" viewBox="0 0 74.35 74.35">
        <path
          stroke-width="2"
          style="stroke-linecap:round;stroke-linejoin:round;fill:none;stroke:#FFF;opacity:0.7"
          d="m41.24 46.08-8.13-8.14 8.13-8.14"
        >
        </path>
    </symbol>
    <symbol id="arrow-right" viewBox="0 0 33 18" fill="none" xmlns="http://www.w3.org/2000/svg">
        <path d="M21.5109 1.83398L31.2399 11.572L21.5109 21.31" stroke="white" stroke-width="4" stroke-miterlimit="10" stroke-linecap="round"></path><path d="M31.24 11.572H1" stroke="white" stroke-width="4" stroke-miterlimit="10" stroke-linecap="round"></path>
    </symbol>

    <symbol id="arrow-right-portfolio" viewBox="0 0 8 12" fill="none" xmlns="http://www.w3.org/2000/svg">
        <path d="M1 1.45996L5.67999 6.14996L1 10.84" stroke="black" stroke-width="2" stroke-miterlimit="10"/>
    </symbol>

    <symbol id="portfolio-slider-button" fill="none" xmlns="http://www.w3.org/2000/svg" viewBox="0 0 46 46">
    <path d="M23.13 45.33c12.2 0 22.09-9.89 22.09-22.09S35.33 1.15 23.13 1.15 1.04 11.04 1.04 23.24s9.89 22.09 22.09 22.09Z" stroke="#000" stroke-miterlimit="10"></path><path d="M22.86 27.76v-4.25h-4.25v-.52h4.25v-4.26h.54v4.26h4.25v.54H23.4v4.25l-.54-.02Z" fill="#000"></path>
    </symbol>
</svg>